<?xml version="1.0" encoding="UTF-8" standalone="no"?>
<svg
   xmlns:sketch="http://www.bohemiancoding.com/sketch/ns"
   xmlns:dc="http://purl.org/dc/elements/1.1/"
   xmlns:cc="http://creativecommons.org/ns#"
   xmlns:rdf="http://www.w3.org/1999/02/22-rdf-syntax-ns#"
   xmlns:svg="http://www.w3.org/2000/svg"
   xmlns="http://www.w3.org/2000/svg"
   xmlns:sodipodi="http://sodipodi.sourceforge.net/DTD/sodipodi-0.dtd"
   xmlns:inkscape="http://www.inkscape.org/namespaces/inkscape"
   x="0px"
   y="0px"
   width="85.288925"
   height="91.158157"
   viewbox="0 0 144 144"
   version="1.1"
   id="svg3717"
   sodipodi:docname="rust-logo-blk.svg"
   viewBox="0 0 85.288925 91.158157"
   inkscape:version="0.92pre3 r"
   inkscape:export-filename="/home/cwoodall/Desktop/rust-logo-blk.svg.png"
   inkscape:export-xdpi="96"
   inkscape:export-ydpi="96">
  <metadata
     id="metadata3723">
    <rdf:RDF>
      <cc:Work
         rdf:about="">
        <dc:format>image/svg+xml</dc:format>
        <dc:type
           rdf:resource="http://purl.org/dc/dcmitype/StillImage" />
      </cc:Work>
    </rdf:RDF>
  </metadata>
  <defs
     id="defs3721" />
  <sodipodi:namedview
     pagecolor="#ffffff"
     bordercolor="#666666"
     borderopacity="1"
     objecttolerance="10"
     gridtolerance="10"
     guidetolerance="10"
     inkscape:pageopacity="0"
     inkscape:pageshadow="2"
     inkscape:window-width="1920"
     inkscape:window-height="1016"
     id="namedview3719"
     showgrid="false"
     inkscape:zoom="2.8284271"
     inkscape:cx="-42.117559"
     inkscape:cy="15.7827"
     inkscape:window-x="0"
     inkscape:window-y="27"
     inkscape:window-maximized="1"
     inkscape:current-layer="layer1" />
  <g
     inkscape:groupmode="layer"
     id="layer1"
     inkscape:label="Layer 1"
     transform="translate(-48.488437,-5.3886719)" />
  <g
     transform="matrix(1.7333444,0,0,1.7333444,2.3409345,-0.7099193)"
     style="fill:none;fill-rule:evenodd;stroke:none;stroke-width:1"
     sketch:type="MSPage"
     id="g3822">
    <g
       style="fill:#000000"
       sketch:type="MSLayerGroup"
       id="g3820">
      <path
         id="path3818"
         style="stroke-width:1.73334444"
         d="m 132.03906,5.8789062 c -0.55687,0.00239 -1.10296,0.2722781 -1.43554,0.7695313 l -6.2129,9.2753905 c -6.48256,-2.768151 -17.16448,-4.3125 -27.626948,-4.3125 -6.877911,0 -13.478378,0.661439 -19.238281,1.873047 -0.506811,-0.702067 0.514657,1.0328 -0.106276,0.43336 -0.254352,0.249828 -2.105915,-1.893653 -2.393724,-1.681407 0.02418,0.03297 0.04995,0.0644 0.07617,0.0957 0.03835,0.04577 0.08019,0.08736 0.121094,0.13086 0.169955,0.06498 0.631025,0.584774 0.759766,0.71875 0.164043,0.170711 0.538696,0.551057 0.65039,0.742187 0.180585,0.309001 0.312909,0.64461 0.46875,0.966797 0.03596,0.184289 0.07147,0.368446 0.107422,0.552734 0.123971,0.12642 0.249187,0.251474 0.363282,0.386719 0.07418,0.08793 0.145274,0.182839 0.189453,0.289063 0.06869,0.165162 0.110259,0.305636 0.166015,0.472656 l 0.0625,0.08203 c 0.04487,0.172673 0.03045,0.1309 0.04492,0.191406 0.0094,0.01597 0.01998,0.02875 0.0293,0.04492 0.327328,0.567751 0.858911,1.462927 0.871094,2.119141 0.0083,0.446655 0.08433,0.969453 -0.134766,1.345703 -5.59e-4,0.04337 0.0044,0.06608 0.0039,0.130859 -0.0077,0.234009 -0.01623,0.406822 -0.0332,0.541016 0.04988,0.127747 0.04486,0.200541 0.240235,0.941406 0.01809,0.06859 -0.01078,-0.121863 -0.02148,-0.21289 -0.003,-0.01594 -0.01333,-0.05532 -0.01172,-0.05469 0.0013,4.95e-4 0.0073,0.02971 0.0098,0.03516 0.02522,0.05614 0.101993,0.326583 0.111328,0.359375 0.106036,0.372493 0.132761,0.632483 0.128907,0.847657 0.807192,0.924541 0.616821,2.221923 -0.548828,2.984375 -0.288743,3.779338 -3.910849,3.972311 -4.544922,0.580078 -0.0066,-9.3e-4 -0.01972,-0.0011 -0.02539,-0.002 -0.02887,-0.0045 -0.05673,-0.02006 -0.08594,-0.01953 -0.186583,0.0033 -0.37229,0.02053 -0.558594,0.03125 -0.247025,-0.0012 -0.493721,0.01199 -0.740235,-0.0039 -0.821518,-0.05313 -0.61152,-0.057 -1.169921,-0.179687 -0.241912,-0.05315 -0.486365,-0.09192 -0.726563,-0.152344 -0.843845,-0.212282 -1.012419,-0.303826 -1.871094,-0.623047 -0.200228,-0.07444 -6.39477,-0.08039 -6.568392,-0.164022 l 1.903449,3.547711 c -0.03647,0.101192 0.175168,-3.45045 0.1376,-3.344626 -0.292704,0.86391 -0.575282,1.697334 -0.841797,2.509765 0.958106,1.257049 1.935184,2.499198 2.896484,3.753906 0.533806,0.696735 1.091416,1.375801 1.587891,2.09961 0.382028,0.556956 0.877521,1.361628 1.335937,2.166015 0.33601,-0.102492 0.64861,-0.188249 1.013672,-0.3125 1.346809,1.889346 2.813427,3.871513 4.345703,5.892578 0.149068,0.327603 0.38353,0.635434 0.697266,0.917969 5.81017,7.600715 12.356888,15.517825 16.373047,20.294922 1.059073,1.260142 2.48645,2.116881 4.058593,2.46875 v 19.025391 c -5.546702,0.121334 -19.066406,0.943689 -19.066406,6.044922 0,5.77377 17.325206,6.068359 20.798828,6.068359 3.473621,0 20.800781,-0.294589 20.800781,-6.068359 0,-5.101233 -13.51971,-5.923588 -19.066406,-6.044922 v -19.09375 c 1.542676,-0.393469 2.932186,-1.259635 3.953126,-2.53711 6.1239,-7.656182 11.20137,-14.269158 15.26953,-19.873046 0.46453,-0.38307 0.76739,-0.803042 0.91992,-1.267579 6.74791,-9.39646 10.42101,-15.711646 10.96875,-18.875 0.0555,-0.251335 0.0879,-0.508455 0.0879,-0.77539 0,-1.667478 -1.13268,-3.161149 -3.08789,-4.462891 l 6.00977,-8.9726561 C 134.0164,7.7805308 133.80368,6.7057021 133.00981,6.171832 132.71145,5.9729307 132.37322,5.8774326 132.0391,5.8788632 Z M 77.927734,16.591797 77.261719,15.734375 c -0.0064,-0.0577 -0.01673,-0.115885 -0.02148,-0.173828 -6.68e-4,-0.0082 0.0014,-0.02857 0.0078,-0.02344 0.02201,0.01772 0.0632,0.09464 0.04883,0.07031 -0.02527,-0.0428 -0.05274,-0.08347 -0.08008,-0.125 0.008,0.041 0.01544,0.08205 0.02344,0.123047 0.0066,0.04152 0.01315,0.08585 0.01953,0.125 l -0.02734,-0.03516 c -0.53417,-0.690151 -0.858622,-0.846441 -1.058594,-0.685546 0.634798,0.304223 1.276211,0.885975 1.824219,1.796875 -0.02575,-0.07932 -0.03648,-0.113485 -0.07031,-0.214844 z m -7.998046,-1.640625 c -0.02187,0.133492 -0.0348,0.264856 -0.05469,0.40039 -0.07725,0.217292 -0.146802,0.438212 -0.232422,0.652344 -0.213653,0.53433 -0.221962,0.384147 -0.396484,0.933594 -0.05891,0.185468 -0.100517,0.377862 -0.150391,0.566406 0.273785,0.01666 0.546922,0.03963 0.820313,0.0625 -0.04294,-0.02344 -0.08588,-0.04682 -0.128907,-0.07031 -0.0097,-0.001 -0.01957,-5.67e-4 -0.0293,-0.002 -0.04824,-0.0055 -0.09394,-0.03098 -0.130859,-0.0625 -0.02136,-0.01824 0.05488,0.01428 0.08203,0.02148 0.02613,0.01427 0.052,0.0287 0.07813,0.04297 0.296354,0.03169 0.595034,0.03669 0.892579,0.05469 2.533116,0.153263 0.692488,-1.285164 -0.75,-2.599609 z m 26.833984,0.126953 c 11.753808,0 20.627598,1.868517 25.654298,3.789063 l -4.52344,6.753906 c -4.86203,0.903072 -11.78813,1.591797 -21.130858,1.591797 -6.267773,0 -12.124472,-0.334786 -17.095703,-0.972657 0.0364,-0.116134 0.04714,-0.237601 0.08008,-0.355468 0.123067,-0.443737 0.224954,-0.895474 0.304687,-1.34961 0.03467,-0.194134 0.07383,-0.388336 0.101563,-0.585937 0.08493,-0.637871 0.142578,-1.281857 0.142578,-1.933594 0,-0.474936 -0.0272,-0.948232 -0.07227,-1.417969 -0.02773,-0.287735 -0.07971,-0.569027 -0.123047,-0.851562 -0.02773,-0.171601 -0.04541,-0.345757 -0.08008,-0.515625 -0.06933,-0.360536 -0.160525,-0.710412 -0.255859,-1.060547 -0.02427,-0.0884 -0.04236,-0.181131 -0.06836,-0.269531 -0.112668,-0.381336 -0.244585,-0.753845 -0.386719,-1.123047 -0.01733,-0.04507 -0.02954,-0.09165 -0.04687,-0.136719 5.2503,-1.012273 11.372627,-1.5625 17.5,-1.5625 z m -29.470703,4.966797 c -0.152292,0.210679 -0.289338,0.408873 -0.429688,0.609375 h 0.384766 c 0.01213,-0.203433 0.03473,-0.405784 0.04492,-0.609375 z m 58.285151,0.335937 c 0.98108,0.615338 1.51758,1.183657 1.51758,1.63086 0,0.594537 -1.34076,1.512723 -4.22851,2.414062 z m -72.652339,5.298829 c -0.045,0.02072 -0.08961,0.0321 -0.134765,0.05469 l 0.134765,0.105469 c -1.65e-4,-0.05339 2.31e-4,-0.106777 0,-0.160156 z m 71.853519,1.736328 c -1.53228,2.66935 -3.87076,6.277001 -7.19532,10.957031 -0.7956,-0.416003 -1.86772,-0.805235 -3.28906,-1.148438 L 119.97266,28.75 c 1.74374,-0.369202 3.37143,-0.810514 4.80664,-1.333984 z m -55.746097,0.125 c 0.929073,0.317202 1.985133,0.611117 3.130859,0.886718 0.792139,0.188935 1.619706,0.373101 2.517579,0.542969 v 0 l 3.576158,0.572258 -0.0078,0.01563 0.0078,-0.01563 c 5.324834,0.740138 11.67995,1.136719 18.50586,1.136719 3.721491,0 11.393921,-0.139362 18.490241,-1.115235 l -4.6836,6.992188 c -3.17548,-0.421203 -7.38083,-0.677735 -12.941407,-0.677735 -12.448879,0 -18.320664,1.21247 -20.988281,2.580078 -1.452543,-1.932679 -2.832743,-3.82381 -4.085937,-5.607422 l -0.08789,-0.123046 C 72.378385,32.60024 72.301499,32.488074 72.214832,32.363273 71.895896,31.903937 71.58262,31.449368 71.279285,31.003898 71.161417,30.82883 71.052109,30.66422 70.939441,30.496086 70.644773,30.05755 70.359354,29.627347 70.082019,29.199211 c -0.08147,-0.126534 -0.168107,-0.259526 -0.246093,-0.38086 -0.280802,-0.436802 -0.549667,-0.864807 -0.802735,-1.277343 z m -6.78125,6.527343 c 0.0073,1.52171 0.584363,2.543158 2.126953,2.806641 -0.01557,-0.02304 -0.0292,-0.04737 -0.04492,-0.07031 -0.484837,-0.70746 -1.029166,-1.371939 -1.550781,-2.052735 -0.175423,-0.228957 -0.354486,-0.455438 -0.53125,-0.683594 z m 33.644531,53.828125 v 1.960938 c 0,0.956806 0.775616,1.732422 1.732422,1.732422 0.956806,0 1.734375,-0.775616 1.734375,-1.732422 v -1.960938 c 8.651119,0.173335 13.877319,1.616559 15.328129,2.582032 -1.54441,1.027873 -7.37484,2.601562 -17.062504,2.601562 -9.687662,0 -15.516137,-1.573689 -17.060547,-2.601562 1.45081,-0.965473 6.677003,-2.408697 15.328125,-2.582032 z"
         inkscape:connector-curvature="0"
         sodipodi:nodetypes="cccsccccccccccccccccccccccccccccccccccccccsscccccccsssccccccsccccccccccccccccccccccccccccccccsccsccccscccccccsccccccscccccccccccccccccccsccscccccccccccccscccsssccscc"
         transform="matrix(0.57691939,0,0,0.57691939,-29.32445,-2.6992631)" />
    </g>
  </g>
  <g
     inkscape:groupmode="layer"
     id="layer2"
     inkscape:label="Layer 2"
     style="display:inline"
     transform="translate(-48.488437,-5.3886719)">
    <path
       id="path3715"
       style="stroke-width:0.31870794"
       d="m 65.152344,5.3886719 c -0.161107,0 -0.32283,0.071065 -0.410156,0.2128906 L 63.876953,7.0039062 63.46875,7.0429688 62.345703,5.8378906 C 62.118146,5.5943973 61.657663,5.684438 61.541016,5.9980469 L 60.966797,7.5371094 60.568359,7.6582031 59.236328,6.6972656 C 58.965427,6.5015794 58.532057,6.6828159 58.478516,7.0117188 L 58.212891,8.6347656 57.849609,8.8300781 56.353516,8.1464844 C 56.049419,8.0075278 55.659127,8.2701476 55.671875,8.6035156 L 55.728516,10.25 55.412109,10.509766 53.810547,10.130859 c -0.32572,-0.07585 -0.656567,0.254358 -0.580078,0.580079 l 0.376953,1.603515 -0.259766,0.316406 -1.646484,-0.05664 c -0.332093,-0.0096 -0.593397,0.376955 -0.455078,0.68164 l 0.68164,1.496094 -0.195312,0.363281 -1.621094,0.263672 c -0.329544,0.05354 -0.508865,0.486911 -0.314453,0.757813 l 0.958984,1.333984 -0.11914,0.396485 -1.539063,0.574218 c -0.312329,0.116645 -0.404286,0.576493 -0.160156,0.804688 l 1.203125,1.123047 -0.03906,0.408203 -1.40039,0.867187 c -0.28365,0.175289 -0.28365,0.643707 0,0.81836 l 1.40039,0.867187 0.03906,0.408203 -1.203125,1.123047 c -0.24413,0.227557 -0.152177,0.685451 0.160156,0.802734 l 1.539063,0.576172 0.11914,0.396485 -0.958984,1.333984 c -0.19505,0.271539 -0.01509,0.702953 0.314453,0.755859 l 1.621094,0.265626 0.195312,0.363281 -0.68164,1.496093 c -0.138957,0.304049 0.122985,0.695027 0.455078,0.681641 l 1.646484,-0.05664 0.259766,0.316407 -0.376953,1.603515 c -0.07649,0.325082 0.254358,0.654614 0.580078,0.578125 l 1.601562,-0.376953 0.316407,0.259766 -0.05664,1.646484 c -0.01275,0.333368 0.377594,0.594035 0.681641,0.455078 l 1.496093,-0.68164 0.363282,0.195312 0.265625,1.621094 c 0.05354,0.330182 0.48691,0.508866 0.757812,0.314453 l 1.332031,-0.960937 0.396485,0.121093 0.576172,1.539063 c 0.116647,0.312335 0.575175,0.40297 0.802734,0.158203 l 1.123047,-1.203125 0.408203,0.04102 0.867188,1.40039 c 0.174649,0.282376 0.645022,0.283013 0.820312,0 l 0.867188,-1.40039 0.40625,-0.04102 1.123046,1.203125 c 0.22756,0.244767 0.688038,0.154132 0.804688,-0.158203 l 0.574219,-1.539063 0.398437,-0.121093 1.332031,0.960937 c 0.2709,0.194413 0.704273,0.01509 0.757813,-0.314453 l 0.263672,-1.621094 0.365234,-0.195312 0.851563,0.388672 c -0.02864,-0.06121 -0.03698,-0.127995 -0.05859,-0.191407 -0.03668,0.0077 -0.05494,0.02093 -0.0957,0.02734 -0.194467,0.03061 -0.35938,-0.159808 -0.539063,-0.240234 -0.35651,-0.159574 -0.340609,-0.271197 -0.167969,-0.359375 -0.0013,-0.0019 -0.0026,-0.0039 -0.0039,-0.0059 -0.05899,-0.08668 -0.116285,-0.174074 -0.173828,-0.261718 -0.17989,-0.29235 -0.190916,-0.304311 -0.357422,-0.609375 C 71.411064,33.11118 72.012606,34.203405 71.640625,33.5 71.540159,33.310022 71.466971,33.210692 71.341797,33.017578 71.150413,32.73 70.95583,32.444608 70.765625,32.15625 70.66555,32.004532 70.573352,31.847486 70.476562,31.693359 l -0.292968,1.365235 a 12.19536,12.19536 0 0 1 -10.169922,-0.04883 l -0.496094,-2.320313 c -0.104536,-0.48826 -0.584643,-0.800167 -1.072266,-0.695312 l -2.048828,0.439453 a 12.19536,12.19536 0 0 1 -1.058593,-1.248047 h 9.966797 c 0.112819,0 0.1875,-0.02042 0.1875,-0.123047 v -3.525391 c 0,-0.102623 -0.07467,-0.123036 -0.1875,-0.123047 h -2.916016 v -2.234374 h 3.152344 c 0.287798,0 1.539473,0.08268 1.939453,1.68164 0.04469,0.175459 0.121361,0.566023 0.193359,0.923828 0.0071,0.01244 0.01452,0.02031 0.02148,0.0332 0.05216,0.09655 0.01879,0.04176 0.173829,0.212891 0.06126,0.06762 0.12235,0.13739 0.189453,0.199219 0.08059,0.07425 0.352677,0.272025 0.433594,0.332031 0.0632,0.04911 0.126695,0.09877 0.189453,0.148438 0.03575,0.0283 0.06884,0.05879 0.105468,0.08594 0.182946,0.135629 0.417174,0.217752 0.63086,0.289063 0.05567,0.01858 0.09213,0.04696 0.142578,0.06836 -0.0021,-0.01053 0.0045,-0.02301 -0.002,-0.0332 -0.0099,-0.0077 -0.01977,-0.01523 -0.0293,-0.02344 -0.0073,-0.0063 0.01158,0.0068 0.02344,0.01563 -0.01918,-0.02915 -0.04299,-0.05908 -0.0918,-0.121093 0.04813,0.05364 0.07179,0.083 0.113281,0.136718 -0.0073,-0.0054 -0.01031,-0.0073 -0.02148,-0.01563 0.0012,0.0019 0.0047,0.006 0.0059,0.0078 0.03199,0.02484 0.06223,0.05128 0.09375,0.07617 0.200614,0.09799 0.364979,0.211605 0.474609,0.339843 0.02998,0.0071 0.06046,0.01236 0.08984,0.02148 0.06685,0.02076 0.130959,0.04864 0.195312,0.07617 0.09288,0.03974 0.171782,0.104717 0.259766,0.154296 0.0019,4.25e-4 0.0039,-4.33e-4 0.0059,0 -0.01519,-0.0018 0.02982,0.0034 0.04492,0.0059 0.0051,0.0013 0.0062,3.96e-4 0.01172,0.002 0.05986,0.0096 0.120426,0.01856 0.179687,0.03125 0.03308,0.0071 0.06527,0.0195 0.09766,0.0293 0.06836,0.02912 0.139189,0.05159 0.205078,0.08594 0.03811,0.01987 -0.163975,-0.0459 -0.121094,-0.04297 0.05371,0.0037 0.116211,0.04315 0.177735,0.07813 0.0026,1.81e-4 0.0052,-2.15e-4 0.0078,0 0.09794,0.0079 0.206571,0.03242 0.302734,0.04687 6.36e-4,1.65e-4 0.12959,0.03304 0.138672,0.03711 0.0058,0.0026 -0.01145,2.99e-4 -0.01758,0.002 -0.0034,8.09e-4 -0.01318,0.0035 -0.0098,0.0039 0.0053,5e-4 0.10447,0.0019 0.119141,0.002 0.06226,-0.0015 0.125426,-0.01097 0.1875,-0.0098 0.08504,0.0018 0.167535,0.01397 0.25,0.03125 h 0.002 c 0.03461,-0.0034 0.06878,-0.0101 0.103516,-0.01172 0.224117,-0.01067 0.179645,-0.0016 0.43164,0.04492 0.03706,0.01417 0.09406,0.03338 0.117188,0.04297 0.105098,0.02245 0.209307,0.04722 0.316406,0.06055 0.141052,0.04016 0.274292,0.07904 0.40625,0.148437 0.04998,0.02628 0.09869,0.0579 0.140625,0.0957 0.0017,0.0016 0.0041,0.0023 0.0059,0.0039 0.01543,0.0076 0.03146,0.01388 0.04687,0.02148 0.0829,0.05477 0.0062,0.0082 0.169922,0.08789 0.131298,0.0639 0.25972,0.132978 0.384765,0.208984 0.07737,-0.03939 0.160513,-0.06796 0.251953,-0.07813 0.158256,-0.0176 0.333522,0.0074 0.523438,0.0918 0.136003,0.06042 0.272282,0.116835 0.40625,0.18164 0.09633,0.0466 0.190967,0.09956 0.285156,0.150391 0.08885,0.02416 0.177778,0.05003 0.265625,0.07813 0.152066,-0.05311 0.324571,-0.09137 0.539063,-0.08984 h 0.0078 c 0.100059,3.09e-4 0.198769,-0.0024 0.298828,-0.002 0.127868,9.12e-4 0.257072,0.0072 0.384766,-0.002 0.106995,-0.0046 0.172969,-0.01179 0.285156,0.0059 0.154604,0.02399 0.282596,0.08534 0.40625,0.167969 0.0271,0.0087 0.03362,0.01668 0.05273,0.02344 0.04228,-0.161203 0.0875,-0.307217 0.148438,-0.384766 -0.03012,-0.02479 -0.06255,-0.04643 -0.0918,-0.07227 -0.0089,-0.0079 0.07638,0.01299 0.101563,0.01953 0.01431,0.0037 0.02859,0.0082 0.04297,0.01172 0.04573,-0.02762 0.103333,0.0049 0.166016,0.05469 0.02579,0.0099 0.05481,0.02046 0.07813,0.03125 0.01943,0.0018 0.03902,0.0037 0.05859,0.0059 l 1.605468,-0.261719 c 0.33018,-0.05291 0.50819,-0.48432 0.3125,-0.755859 l -0.958984,-1.333984 0.121094,-0.396485 1.537109,-0.576172 c 0.31297,-0.117284 0.404926,-0.575177 0.160156,-0.802734 l -1.203125,-1.123047 0.03906,-0.408203 1.40039,-0.867187 c 0.28365,-0.174653 0.28365,-0.643071 0,-0.81836 l -1.40039,-0.867187 -0.03906,-0.408203 1.203125,-1.123047 c 0.24477,-0.228203 0.152814,-0.688041 -0.160156,-0.804688 l -1.537109,-0.574218 -0.121094,-0.396485 0.958984,-1.333984 c 0.19569,-0.270902 0.01701,-0.703632 -0.3125,-0.757813 L 78.570312,15.115234 78.375,14.751953 79.056641,13.255859 c 0.13959,-0.304685 -0.119799,-0.694388 -0.455079,-0.68164 l -1.646484,0.05664 -0.259766,-0.316406 0.378907,-1.603515 c 0.0765,-0.325719 -0.254358,-0.656569 -0.580078,-0.580079 L 74.890625,10.509766 74.574219,10.25 74.632812,8.6035156 c 0.0127,-0.333368 -0.37759,-0.5953508 -0.68164,-0.4570312 L 72.455078,8.8300781 72.089844,8.6347656 71.826172,7.0117188 C 71.772672,6.6828125 71.339259,6.5022163 71.068359,6.6972656 L 69.734375,7.6582031 69.337891,7.5371094 68.763672,5.9980469 C 68.647032,5.684438 68.186544,5.5943973 67.958984,5.8378906 L 66.837891,7.0429688 66.429688,7.0039062 65.5625,5.6015625 C 65.474855,5.4597375 65.313451,5.3886719 65.152344,5.3886719 Z m -0.02344,2.9375 a 0.990545,0.990545 0 0 1 0.960938,0.9902343 0.9905445,0.9905445 0 0 1 -1.980469,0 0.990545,0.990545 0 0 1 1.019531,-0.9902343 z m 2.269532,1.6308593 a 12.19536,12.19536 0 0 1 8.349609,5.9453128 l -1.169922,2.638672 c -0.20175,0.456708 0.0054,0.990979 0.460937,1.193359 l 2.248047,1 a 12.19536,12.19536 0 0 1 0.02734,2.117187 H 76.0625 c -0.12526,0 -0.175781,0.08237 -0.175781,0.205079 v 0.574218 c 0,1.352597 -0.763311,1.647761 -1.431641,1.722657 -0.63646,0.07171 -1.340724,-0.26679 -1.427734,-0.65625 -0.37543,-2.11176 -1.002245,-2.562556 -1.990235,-3.341797 1.22607,-0.778603 2.50197,-1.927397 2.501953,-3.464844 0,-1.66015 -1.138322,-2.705949 -1.914062,-3.21875 -1.08839,-0.717411 -2.292107,-0.861328 -2.617188,-0.861328 H 56.066406 a 12.19536,12.19536 0 0 1 6.822266,-3.8515626 l 1.52539,1.6015626 c 0.344842,0.361096 0.916567,0.374405 1.277344,0.0293 z M 53.3125,17.294922 a 0.9905443,0.9905443 0 0 1 0.960938,0.990234 0.9905443,0.9905443 0 0 1 -1.980469,0 0.9905443,0.9905443 0 0 1 1.019531,-0.990234 z m 23.634766,0.04883 a 0.9905443,0.9905443 0 0 1 0.958984,0.986328 0.9905443,0.9905443 0 0 1 -1.980469,0 0.9905443,0.9905443 0 0 1 1.021485,-0.986328 z M 55.179688,17.5 h 1.728515 v 7.791016 h -3.488281 a 12.19536,12.19536 0 0 1 -0.394531,-4.65625 L 55.160156,19.6875 c 0.455752,-0.20238 0.661365,-0.736651 0.458985,-1.193359 z m 7.208984,0.08203 h 4.117187 c 0.21257,0 1.5,0.245531 1.5,1.208985 0,0.799957 -0.988071,1.08789 -1.800781,1.08789 h -3.816406 z m 8.794922,10.390625 c -0.01115,-0.0019 -0.0445,0.0012 -0.0332,0.002 0.01648,0.001 0.03231,0.0016 0.04883,0.002 -0.0053,-0.001 -0.01032,-0.003 -0.01563,-0.0039 z m -2.607422,0.375 c 0.306939,0.39742 0.703267,0.756304 1.132812,0.816406 -0.02828,-0.01657 -0.05341,-0.02841 -0.08594,-0.04883 -0.153273,-0.09619 -0.299763,-0.204953 -0.445313,-0.3125 -0.06256,-0.02589 -0.124953,-0.05209 -0.1875,-0.07813 -0.02569,-0.03122 -0.04918,-0.06365 -0.07617,-0.09375 -0.01253,-0.01397 0.04732,0.05727 0.0332,0.04492 -0.0409,-0.03577 -0.117721,-0.122847 -0.160157,-0.169922 -0.03146,-0.0349 -0.04893,-0.06878 -0.07617,-0.103515 -0.04503,-0.01677 -0.08966,-0.03607 -0.134766,-0.05469 z m -10.785156,2.90625 a 0.9905445,0.9905445 0 0 1 0.960937,0.988282 0.991211,0.991211 0 0 1 -1.982422,0 0.9905445,0.9905445 0 0 1 1.021485,-0.988282 z m 17.736328,0.128906 c -0.0041,0.02847 -0.0012,0.05713 0,0.08594 0.0011,-0.0015 0.0028,-0.0024 0.0039,-0.0039 0.004,-0.0084 0.0088,-0.01652 0.01172,-0.02539 0.0061,-0.0186 -0.01282,-0.07602 -0.01563,-0.05664 z m -2.583985,2.648438 c -0.130706,0.04513 -0.264031,0.170488 -0.423828,0.431641 -0.07352,0.120151 -0.03957,0.268602 -0.0078,0.416015 0.126117,-0.05172 0.329005,-0.09129 0.519531,-0.132812 -0.0017,-0.01572 -0.007,-0.0311 -0.0078,-0.04687 -0.006,-0.123756 0.01244,-0.385722 0.02344,-0.564453 -0.01578,-0.01423 -0.0015,-1.56e-4 -0.04492,-0.04102 -0.02075,-0.01951 -0.03909,-0.0416 -0.05859,-0.0625 z m -0.402343,1.005859 c 3.66e-4,0.0038 0.0017,0.008 0.002,0.01172 0.001,0.01269 0.03249,0.03791 0.02539,0.02734 -0.0089,-0.01324 -0.01807,-0.02608 -0.02734,-0.03906 z m 1.263672,0.144532 c -0.01311,0.0201 -0.04014,0.03427 -0.05664,0.05273 0.04943,0.05664 0.08672,0.118418 0.144531,0.169922 -0.0027,-0.0112 -0.007,-0.02206 -0.0098,-0.0332 -0.01102,-0.03364 -0.01974,-0.06883 -0.0332,-0.101563 -0.01142,-0.02777 -0.03008,-0.05296 -0.04297,-0.08008 -0.0012,-0.0026 -4.83e-4,-0.0053 -0.002,-0.0078 z m 0.708984,0.548828 c -0.0019,0.01629 -0.004,0.03254 -0.0059,0.04883 0.0033,0.0046 0.0068,0.0089 0.0098,0.01367 0.01195,-0.01453 0.01859,-0.03157 0.0293,-0.04687 -0.01117,-0.005 -0.02219,-0.01031 -0.0332,-0.01563 z"
       inkscape:connector-curvature="0" />
  </g>
</svg>
